# xmcd
#
# Track frame offsets:
#	150
#	17842
#	34980
#	51763
#	67071
#	90014
#	115830
#	130889
#	145331
#	164708
#	178498
#	191214
#	205640
#	222813
#	242048
#	255500
#	271799
#	285153
#	301272
#	312896
#
# Disc length: 4376 seconds
#
# Revision: 0
# Processed by: cddbd v1.5.2PL0 Copyright (c) Steve Scherf et al.
# Submitted via: EZCDAudioConverter 3.0.8.1
#
DISCID=22111614
DTITLE=Variados - Boi Porco e Viola
DYEAR=2016
DGENRE=Modão
TTITLE0=Durval and Davi - Eu vou Quebrar o pau
TTITLE1=Durval and Davi - Morena Cheirosa
TTITLE2=Durval and Davi - Vida pelo Avesso
TTITLE3=Durval and Davi - No mesmo Lugar
TTITLE4=Durval and Davi - Alerta
TTITLE5=Joaquim and Manoel - Boate azul
TTITLE6=Joaquim and Manoel - Boteco do leonardo e eduardo costa
TTITLE7=Joaquim and Manoel - Camaro Preto
TTITLE8=Joaquim and Manoel - Som de Cristal
TTITLE9=Daniel Gama - Aluna Dedicada
TTITLE10=Daniel Gama - Desejo Proibido
TTITLE11=Daniel Gama - Diga que sim
TTITLE12=Daniel Gama - Ta disponivel
TTITLE13=Gustavo and Daniel - Parece ate brincadeira
TTITLE14=Gustavo and Daniel - Se ferrou
TTITLE15=Gustavo and Daniel - Se isso e amor eu amo
TTITLE16=Amanda Victoria - Alo
TTITLE17=Amanda Victoria - Amor apaixonado
TTITLE18=Amanda Victoria - Vacilou
TTITLE19=Agradecimento - Agradecimento
EXTD=
EXTT0=
EXTT1=
EXTT2=
EXTT3=
EXTT4=
EXTT5=
EXTT6=
EXTT7=
EXTT8=
EXTT9=
EXTT10=
EXTT11=
EXTT12=
EXTT13=
EXTT14=
EXTT15=
EXTT16=
EXTT17=
EXTT18=
EXTT19=
PLAYORDER=
